<mxfile host="app.diagrams.net" modified="2023-09-27T22:55:22.123Z" agent="Mozilla/5.0 (Macintosh; Intel Mac OS X 10_15_7) AppleWebKit/537.36 (KHTML, like Gecko) Chrome/116.0.0.0 Safari/537.36" etag="l5GtBpkZPtdwy-n6AkmK" version="21.8.2" type="device">
  <diagram name="Page-1" id="2YBvvXClWsGukQMizWep">
    <mxGraphModel dx="954" dy="549" grid="1" gridSize="10" guides="1" tooltips="1" connect="1" arrows="1" fold="1" page="1" pageScale="1" pageWidth="850" pageHeight="1100" math="0" shadow="0">
      <root>
        <mxCell id="0" />
        <mxCell id="1" parent="0" />
        <mxCell id="aM9ryv3xv72pqoxQDRHE-1" value=":Ticket" style="shape=umlLifeline;perimeter=lifelinePerimeter;whiteSpace=wrap;html=1;container=0;dropTarget=0;collapsible=0;recursiveResize=0;outlineConnect=0;portConstraint=eastwest;newEdgeStyle={&quot;edgeStyle&quot;:&quot;elbowEdgeStyle&quot;,&quot;elbow&quot;:&quot;vertical&quot;,&quot;curved&quot;:0,&quot;rounded&quot;:0};" parent="1" vertex="1">
          <mxGeometry x="140" y="30" width="100" height="900" as="geometry" />
        </mxCell>
        <mxCell id="aM9ryv3xv72pqoxQDRHE-3" value="&lt;font style=&quot;font-size: 10px;&quot;&gt;1. agregarProducto(McChombo1)&lt;/font&gt;" style="html=1;verticalAlign=bottom;startArrow=oval;endArrow=block;startSize=8;edgeStyle=elbowEdgeStyle;elbow=vertical;curved=0;rounded=0;" parent="aM9ryv3xv72pqoxQDRHE-1" edge="1">
          <mxGeometry x="-0.1724" y="10" relative="1" as="geometry">
            <mxPoint x="-100" y="70" as="sourcePoint" />
            <mxPoint x="45" y="70" as="targetPoint" />
            <mxPoint as="offset" />
          </mxGeometry>
        </mxCell>
        <mxCell id="OlmNlwiQr7anz5SbocM--7" value="" style="html=1;points=[];perimeter=orthogonalPerimeter;outlineConnect=0;targetShapes=umlLifeline;portConstraint=eastwest;newEdgeStyle={&quot;edgeStyle&quot;:&quot;elbowEdgeStyle&quot;,&quot;elbow&quot;:&quot;vertical&quot;,&quot;curved&quot;:0,&quot;rounded&quot;:0};" parent="aM9ryv3xv72pqoxQDRHE-1" vertex="1">
          <mxGeometry x="45" y="60" width="10" height="50" as="geometry" />
        </mxCell>
        <mxCell id="9x7RvhO10UlrTop7r2ag-27" value="" style="html=1;points=[];perimeter=orthogonalPerimeter;outlineConnect=0;targetShapes=umlLifeline;portConstraint=eastwest;newEdgeStyle={&quot;edgeStyle&quot;:&quot;elbowEdgeStyle&quot;,&quot;elbow&quot;:&quot;vertical&quot;,&quot;curved&quot;:0,&quot;rounded&quot;:0};" parent="aM9ryv3xv72pqoxQDRHE-1" vertex="1">
          <mxGeometry x="45" y="154" width="10" height="230" as="geometry" />
        </mxCell>
        <mxCell id="OlmNlwiQr7anz5SbocM--30" value="" style="shape=umlLifeline;perimeter=lifelinePerimeter;whiteSpace=wrap;html=1;container=1;dropTarget=0;collapsible=0;recursiveResize=0;outlineConnect=0;portConstraint=eastwest;newEdgeStyle={&quot;edgeStyle&quot;:&quot;elbowEdgeStyle&quot;,&quot;elbow&quot;:&quot;vertical&quot;,&quot;curved&quot;:0,&quot;rounded&quot;:0};participant=umlActor;" parent="1" vertex="1">
          <mxGeometry x="10" y="60" width="20" height="870" as="geometry" />
        </mxCell>
        <mxCell id="SA4BAgQwgF_LPQhPAVFz-1" value="Cliente" style="text;html=1;strokeColor=none;fillColor=none;align=center;verticalAlign=middle;whiteSpace=wrap;rounded=0;" parent="1" vertex="1">
          <mxGeometry y="30" width="40" height="30" as="geometry" />
        </mxCell>
        <mxCell id="SA4BAgQwgF_LPQhPAVFz-4" value="&lt;font style=&quot;font-size: 11px;&quot;&gt;2. imprimir()&lt;/font&gt;" style="html=1;verticalAlign=bottom;startArrow=oval;endArrow=block;startSize=8;edgeStyle=elbowEdgeStyle;elbow=vertical;curved=0;rounded=0;" parent="1" source="OlmNlwiQr7anz5SbocM--30" edge="1">
          <mxGeometry x="0.0634" y="10" relative="1" as="geometry">
            <mxPoint x="40" y="190" as="sourcePoint" />
            <mxPoint x="185" y="190" as="targetPoint" />
            <mxPoint as="offset" />
          </mxGeometry>
        </mxCell>
        <mxCell id="9x7RvhO10UlrTop7r2ag-24" value="McChombo" style="shape=umlLifeline;perimeter=lifelinePerimeter;whiteSpace=wrap;html=1;container=0;dropTarget=0;collapsible=0;recursiveResize=0;outlineConnect=0;portConstraint=eastwest;newEdgeStyle={&quot;edgeStyle&quot;:&quot;elbowEdgeStyle&quot;,&quot;elbow&quot;:&quot;vertical&quot;,&quot;curved&quot;:0,&quot;rounded&quot;:0};" parent="1" vertex="1">
          <mxGeometry x="325" y="30" width="100" height="900" as="geometry" />
        </mxCell>
        <mxCell id="9x7RvhO10UlrTop7r2ag-31" value="" style="html=1;points=[];perimeter=orthogonalPerimeter;outlineConnect=0;targetShapes=umlLifeline;portConstraint=eastwest;newEdgeStyle={&quot;edgeStyle&quot;:&quot;elbowEdgeStyle&quot;,&quot;elbow&quot;:&quot;vertical&quot;,&quot;curved&quot;:0,&quot;rounded&quot;:0};" parent="9x7RvhO10UlrTop7r2ag-24" vertex="1">
          <mxGeometry x="45" y="210" width="10" height="270" as="geometry" />
        </mxCell>
        <mxCell id="9x7RvhO10UlrTop7r2ag-40" value="" style="html=1;points=[];perimeter=orthogonalPerimeter;outlineConnect=0;targetShapes=umlLifeline;portConstraint=eastwest;newEdgeStyle={&quot;edgeStyle&quot;:&quot;elbowEdgeStyle&quot;,&quot;elbow&quot;:&quot;vertical&quot;,&quot;curved&quot;:0,&quot;rounded&quot;:0};" parent="9x7RvhO10UlrTop7r2ag-24" vertex="1">
          <mxGeometry x="50" y="327.5" width="10" height="40" as="geometry" />
        </mxCell>
        <mxCell id="9x7RvhO10UlrTop7r2ag-41" value="4. get(index)" style="html=1;align=left;spacingLeft=2;endArrow=block;rounded=0;edgeStyle=orthogonalEdgeStyle;curved=0;rounded=0;" parent="9x7RvhO10UlrTop7r2ag-24" target="9x7RvhO10UlrTop7r2ag-40" edge="1">
          <mxGeometry relative="1" as="geometry">
            <mxPoint x="55" y="307.5" as="sourcePoint" />
            <Array as="points">
              <mxPoint x="85" y="337.5" />
            </Array>
          </mxGeometry>
        </mxCell>
        <mxCell id="9x7RvhO10UlrTop7r2ag-28" value="for" style="shape=umlFrame;whiteSpace=wrap;html=1;pointerEvents=0;" parent="1" vertex="1">
          <mxGeometry x="170" y="150" width="520" height="650" as="geometry" />
        </mxCell>
        <mxCell id="9x7RvhO10UlrTop7r2ag-29" value="[0..productos.size() || 1]" style="text;html=1;strokeColor=none;fillColor=none;align=center;verticalAlign=middle;whiteSpace=wrap;rounded=0;" parent="1" vertex="1">
          <mxGeometry x="230" y="145" width="130" height="30" as="geometry" />
        </mxCell>
        <mxCell id="9x7RvhO10UlrTop7r2ag-30" value="&lt;font style=&quot;font-size: 11px;&quot;&gt;3. calcularPrecio()&lt;/font&gt;" style="html=1;verticalAlign=bottom;startArrow=oval;endArrow=block;startSize=8;edgeStyle=elbowEdgeStyle;elbow=vertical;curved=0;rounded=0;" parent="1" target="9x7RvhO10UlrTop7r2ag-24" edge="1">
          <mxGeometry x="0.0634" y="10" relative="1" as="geometry">
            <mxPoint x="200" y="240" as="sourcePoint" />
            <mxPoint x="365" y="240" as="targetPoint" />
            <mxPoint as="offset" />
          </mxGeometry>
        </mxCell>
        <mxCell id="9x7RvhO10UlrTop7r2ag-51" value="Text" style="edgeLabel;html=1;align=center;verticalAlign=middle;resizable=0;points=[];" parent="9x7RvhO10UlrTop7r2ag-30" connectable="0" vertex="1">
          <mxGeometry x="0.0844" y="5" relative="1" as="geometry">
            <mxPoint as="offset" />
          </mxGeometry>
        </mxCell>
        <mxCell id="9x7RvhO10UlrTop7r2ag-33" value="Producto" style="shape=umlLifeline;perimeter=lifelinePerimeter;whiteSpace=wrap;html=1;container=0;dropTarget=0;collapsible=0;recursiveResize=0;outlineConnect=0;portConstraint=eastwest;newEdgeStyle={&quot;edgeStyle&quot;:&quot;elbowEdgeStyle&quot;,&quot;elbow&quot;:&quot;vertical&quot;,&quot;curved&quot;:0,&quot;rounded&quot;:0};" parent="1" vertex="1">
          <mxGeometry x="510" y="30" width="100" height="900" as="geometry" />
        </mxCell>
        <mxCell id="9x7RvhO10UlrTop7r2ag-44" value="" style="html=1;points=[];perimeter=orthogonalPerimeter;outlineConnect=0;targetShapes=umlLifeline;portConstraint=eastwest;newEdgeStyle={&quot;edgeStyle&quot;:&quot;elbowEdgeStyle&quot;,&quot;elbow&quot;:&quot;vertical&quot;,&quot;curved&quot;:0,&quot;rounded&quot;:0};" parent="9x7RvhO10UlrTop7r2ag-33" vertex="1">
          <mxGeometry x="45" y="390" width="10" height="60" as="geometry" />
        </mxCell>
        <mxCell id="9x7RvhO10UlrTop7r2ag-36" value="for" style="shape=umlFrame;whiteSpace=wrap;html=1;pointerEvents=0;" parent="1" vertex="1">
          <mxGeometry x="350" y="205" width="330" height="355" as="geometry" />
        </mxCell>
        <mxCell id="9x7RvhO10UlrTop7r2ag-37" value="[0..productos.size()]" style="text;html=1;strokeColor=none;fillColor=none;align=center;verticalAlign=middle;whiteSpace=wrap;rounded=0;" parent="1" vertex="1">
          <mxGeometry x="410" y="200" width="130" height="30" as="geometry" />
        </mxCell>
        <mxCell id="9x7RvhO10UlrTop7r2ag-43" value="&lt;font style=&quot;font-size: 11px;&quot;&gt;5. calcularPrecio()&lt;/font&gt;" style="html=1;verticalAlign=bottom;startArrow=oval;endArrow=block;startSize=8;edgeStyle=elbowEdgeStyle;elbow=vertical;curved=0;rounded=0;" parent="1" edge="1">
          <mxGeometry x="0.0634" y="10" relative="1" as="geometry">
            <mxPoint x="380" y="430" as="sourcePoint" />
            <mxPoint x="555" y="430" as="targetPoint" />
            <mxPoint as="offset" />
          </mxGeometry>
        </mxCell>
        <mxCell id="9x7RvhO10UlrTop7r2ag-45" value="precioProductoIndividual" style="html=1;verticalAlign=bottom;endArrow=open;dashed=1;endSize=8;edgeStyle=elbowEdgeStyle;elbow=vertical;curved=0;rounded=0;" parent="1" edge="1">
          <mxGeometry x="0.0057" relative="1" as="geometry">
            <mxPoint x="550" y="470" as="sourcePoint" />
            <mxPoint x="380" y="470" as="targetPoint" />
            <mxPoint as="offset" />
          </mxGeometry>
        </mxCell>
        <mxCell id="9x7RvhO10UlrTop7r2ag-46" value="total = 0" style="shape=note;whiteSpace=wrap;html=1;backgroundOutline=1;darkOpacity=0.05;" parent="1" vertex="1">
          <mxGeometry x="390" y="250" width="130" height="50" as="geometry" />
        </mxCell>
        <mxCell id="9x7RvhO10UlrTop7r2ag-48" value="total += precioProductoIndividual" style="rounded=0;whiteSpace=wrap;html=1;" parent="1" vertex="1">
          <mxGeometry x="400" y="490" width="140" height="60" as="geometry" />
        </mxCell>
        <mxCell id="9x7RvhO10UlrTop7r2ag-49" value="totalConDescuento =&amp;nbsp;total - (total * (DESCUENTO / 100))" style="rounded=0;whiteSpace=wrap;html=1;" parent="1" vertex="1">
          <mxGeometry x="390" y="580" width="160" height="60" as="geometry" />
        </mxCell>
        <mxCell id="9x7RvhO10UlrTop7r2ag-52" value="totalTicket = 0" style="shape=note;whiteSpace=wrap;html=1;backgroundOutline=1;darkOpacity=0.05;" parent="1" vertex="1">
          <mxGeometry x="210" y="260" width="130" height="50" as="geometry" />
        </mxCell>
        <mxCell id="9x7RvhO10UlrTop7r2ag-53" value="totalConDescuento" style="html=1;verticalAlign=bottom;endArrow=open;dashed=1;endSize=8;edgeStyle=elbowEdgeStyle;elbow=vertical;curved=0;rounded=0;" parent="1" edge="1">
          <mxGeometry x="0.0057" relative="1" as="geometry">
            <mxPoint x="370" y="651" as="sourcePoint" />
            <mxPoint x="190" y="651" as="targetPoint" />
            <mxPoint as="offset" />
          </mxGeometry>
        </mxCell>
        <mxCell id="9x7RvhO10UlrTop7r2ag-54" value="totalTicket += totalConDescuento" style="rounded=0;whiteSpace=wrap;html=1;" parent="1" vertex="1">
          <mxGeometry x="200" y="690" width="160" height="60" as="geometry" />
        </mxCell>
        <mxCell id="9x7RvhO10UlrTop7r2ag-55" value="totalTicket" style="html=1;verticalAlign=bottom;endArrow=open;dashed=1;endSize=8;edgeStyle=elbowEdgeStyle;elbow=vertical;curved=0;rounded=0;" parent="1" edge="1">
          <mxGeometry x="0.0057" relative="1" as="geometry">
            <mxPoint x="190" y="840" as="sourcePoint" />
            <mxPoint x="20" y="840" as="targetPoint" />
            <mxPoint as="offset" />
          </mxGeometry>
        </mxCell>
      </root>
    </mxGraphModel>
  </diagram>
</mxfile>
